<svg width="200" height="200" viewBox="0 0 200 200" fill="none" xmlns="http://www.w3.org/2000/svg">
<mask id="mask0_2008:41511" style="mask-type:alpha" maskUnits="userSpaceOnUse" x="0" y="0" width="200" height="200">
<circle cx="100" cy="100" r="100" fill="#FFFAFB"/>
</mask>
<g mask="url(#mask0_2008:41511)">
<rect x="-14.8148" y="-14.8148" width="226.667" height="219.259" fill="#FFFAFB"/>
<path d="M39.7006 8.80474L39.7006 8.80473L39.6977 8.79945C38.0735 5.92504 37.882 3.76488 38.4119 2.08523C38.9508 0.376633 40.2894 -1.0071 42.0879 -2.18458C43.8854 -3.36144 46.0495 -4.27297 48.109 -5.07951C48.4449 -5.21108 48.7811 -5.34084 49.1138 -5.46928C50.7576 -6.10377 52.3181 -6.70612 53.3551 -7.33462L53.3551 -7.33454L53.3667 -7.34178C56.6739 -9.41268 60.5077 -9.79664 64.555 -10.202C64.6554 -10.212 64.7558 -10.2221 64.8564 -10.2322C68.9351 -10.6417 73.2389 -11.1179 76.7538 -13.7854L76.7607 -13.7907L76.7675 -13.796C79.3557 -15.8379 83.1144 -16.2762 86.9889 -15.0593C87.8278 -14.6731 88.6735 -14.2657 89.3535 -13.5871C90.2969 -12.5884 90.7227 -11.213 90.7111 -9.82961C90.6995 -8.44145 90.2484 -7.21125 89.6523 -6.53576C88.9708 -5.87384 88.1001 -5.43536 87.0656 -4.97299C86.9357 -4.91494 86.8025 -4.85627 86.6668 -4.79649C85.7542 -4.39442 84.728 -3.94227 83.8192 -3.29088L83.8134 -3.28664C82.2508 -2.14804 81.1613 -0.432697 80.2921 1.40406C79.6085 2.84874 79.0272 4.44792 78.466 5.99136C78.3144 6.40857 78.1642 6.82172 78.0138 7.22663C77.2934 9.16713 76.5664 10.9303 75.634 12.2871C74.7093 13.6326 73.6479 14.4828 72.2975 14.7531L72.2864 14.7553L72.2754 14.7578C70.4285 15.1701 68.2711 14.4333 65.7267 13.3387C65.3872 13.1926 65.0399 13.04 64.6879 12.8853C63.7817 12.4871 62.8449 12.0755 61.9324 11.7278C60.6548 11.241 59.3248 10.8383 58.0072 10.7299L58.0055 10.7298C56.0753 10.5741 54.3792 11.0452 52.8405 11.5806C52.429 11.7237 52.0337 11.8691 51.6476 12.011C50.5377 12.4191 49.5039 12.7993 48.3794 13.0192L48.356 13.0238L48.3329 13.0295C45.6193 13.6926 41.8232 12.6129 39.7006 8.80474Z" stroke="white" stroke-width="2" stroke-miterlimit="10"/>
<path d="M87.5158 8.78591L87.5158 8.78589L87.5128 8.79611C87.2027 9.86935 86.9139 10.9991 86.618 12.1571C86.1167 14.1183 85.5948 16.1602 84.9137 18.1448C83.8386 21.2775 82.4554 23.9565 80.4122 25.4908C78.543 26.8732 76.3495 27.1315 73.7813 26.8361C71.6752 26.5714 69.4683 25.7624 67.08 24.6953C65.9918 24.2092 64.8852 23.6785 63.7415 23.1301C63.6329 23.0781 63.524 23.0258 63.4147 22.9735C62.1635 22.3738 60.8712 21.7586 59.5468 21.1802C57.1914 20.1 54.846 19.2573 52.5186 19.0726C49.8652 18.7421 47.4492 19.1695 45.1163 19.8157C44.0544 20.1099 42.9914 20.455 41.9314 20.7991C41.8264 20.8332 41.7214 20.8673 41.6165 20.9013C40.4439 21.2814 39.2667 21.657 38.0422 21.9787L38.0422 21.9787L38.0335 21.981C31.4455 23.775 24.457 20.1493 20.6584 13.0436C19.3711 10.6355 18.4469 8.29105 17.8775 6.00878C17.114 2.56918 16.7443 -1.25364 17.2321 -4.64094C17.7212 -8.03737 19.0523 -10.8796 21.5712 -12.5485C22.0285 -12.8506 22.6854 -13.0278 23.5597 -13.0983C24.4305 -13.1685 25.419 -13.1268 26.4835 -13.0619C26.661 -13.0511 26.8412 -13.0396 27.023 -13.028C27.9023 -12.9718 28.8211 -12.9131 29.6741 -12.9179C30.6994 -12.9238 31.7525 -13.0189 32.641 -13.3803L32.6478 -13.3831L32.6547 -13.386C34.4163 -14.1342 36.0774 -14.8885 37.6691 -15.6114C40.5889 -16.9373 43.2751 -18.1572 45.9202 -19.0381L45.9294 -19.0411L45.9386 -19.0444C49.5627 -20.3309 52.8366 -22.1376 55.9936 -23.8798C56.3558 -24.0797 56.7166 -24.2788 57.0761 -24.4761C60.5989 -26.4097 64.0205 -28.1851 67.8184 -29.1498C69.4657 -29.5652 71.4412 -29.306 73.6943 -28.956C73.8173 -28.9369 73.9412 -28.9175 74.0659 -28.898C76.102 -28.5792 78.3541 -28.2267 80.3715 -28.5593C81.1774 -28.6137 81.7817 -28.7962 82.4617 -29.1885L82.4753 -29.1963L82.4885 -29.2045C87.0157 -32.0197 92.7417 -31.9512 98.3005 -29.6242L98.3147 -29.6183L98.329 -29.6127C99.8187 -29.0356 101.262 -28.1635 102.643 -26.6733L102.795 -26.5094L102.877 -26.4719C104.693 -24.2544 105.597 -21.3017 105.723 -18.4854C105.85 -15.6414 105.176 -13.1375 104.081 -11.795L104.07 -11.7817L104.059 -11.7679C103.108 -10.5054 101.831 -9.72292 100.369 -9.00207C100.021 -8.83057 99.6546 -8.6595 99.2784 -8.48387C98.1329 -7.94894 96.8967 -7.37171 95.8181 -6.61103C94.9793 -6.0371 94.2567 -5.48125 93.5875 -4.75816C91.8824 -2.97588 90.7218 -0.739079 89.8125 1.60152C89.0974 3.44205 88.5194 5.39917 87.9623 7.28528C87.8127 7.79183 87.6646 8.29325 87.5158 8.78591Z" stroke="white" stroke-width="2" stroke-miterlimit="10"/>
<path d="M85.6714 38.0895L85.6713 38.0894L85.6596 38.0967C82.5193 40.0255 78.9514 39.8154 75.2281 38.9018C72.2907 38.1682 69.3244 36.8142 66.2221 35.2174C65.1269 34.6536 64.0052 34.0543 62.8641 33.4445C60.824 32.3543 58.7217 31.2309 56.5974 30.2188C53.4795 28.6692 50.4299 27.7539 47.5534 27.2813L47.5404 27.2792L47.5273 27.2774C44.031 26.7878 40.8174 27.2857 37.6777 28.1083C36.1104 28.519 34.544 29.0156 32.9703 29.5159L32.8844 29.5433C31.3319 30.0369 29.7684 30.534 28.1441 30.9737C17.2064 33.8916 7.27292 27.692 1.85227 17.387C0.0305432 13.646 -1.59285 9.9435 -2.35249 6.32985L-2.3524 6.32984L-2.35528 6.31702C-3.48751 1.27335 -4.49467 -4.84591 -4.20483 -10.374C-3.91374 -15.9257 -2.32812 -20.6605 1.47849 -23.2399C2.10226 -23.6417 3.115 -23.7992 4.55132 -23.7157C5.96733 -23.6334 7.6047 -23.3319 9.33576 -22.9922C9.51805 -22.9565 9.70143 -22.9203 9.88558 -22.8839C11.4175 -22.5815 13.0022 -22.2687 14.4442 -22.1106C16.0354 -21.9362 17.6402 -21.9244 18.8938 -22.4424L18.8938 -22.4423L18.9035 -22.4464C21.2837 -23.46 23.5682 -24.5335 25.7805 -25.5731C26.9504 -26.1227 28.1 -26.6629 29.2329 -27.1798C32.5334 -28.6855 35.7431 -30.0183 39.1 -30.9288C44.7965 -32.4408 49.4108 -35.9079 53.8169 -39.3027C53.9771 -39.4261 54.137 -39.5494 54.2967 -39.6725C58.586 -42.9803 62.7072 -46.1584 67.6222 -47.7527L67.6271 -47.7544C68.492 -48.0399 69.5855 -48.0207 70.9141 -47.7499C72.2381 -47.48 73.6936 -46.9824 75.234 -46.4066C75.6866 -46.2374 76.1492 -46.0604 76.6162 -45.8817C77.7062 -45.4645 78.8204 -45.0381 79.8882 -44.6807C81.4152 -44.1695 82.9634 -43.7572 84.3939 -43.6873C85.3844 -43.6246 86.4228 -43.7128 87.3589 -44.1955L87.3905 -44.2118L87.4205 -44.2303C94.0123 -48.2792 102.178 -47.698 109.714 -44.3569C111.931 -43.3395 114.064 -42.0294 116.142 -39.6502L116.615 -39.1097L116.64 -39.1173C119.167 -35.8357 120.492 -31.5396 120.765 -27.4653C121.048 -23.2285 120.18 -19.4495 118.586 -17.4163L118.578 -17.4065L118.571 -17.3966C117.119 -15.4337 115.216 -14.2703 113.092 -13.1963C112.658 -12.9766 112.21 -12.7589 111.753 -12.5372C110.022 -11.6962 108.173 -10.7984 106.528 -9.52352L106.519 -9.51655L106.51 -9.50936C105.567 -8.74099 104.498 -7.75909 103.638 -6.65547C99.6574 -1.62763 97.9376 5.38599 96.4242 11.5584C96.2589 12.2325 96.096 12.8966 95.9329 13.547L95.9312 13.5541C95.5972 14.9352 95.2867 16.4303 94.9631 17.9877C94.3382 20.996 93.6649 24.237 92.6811 27.3392C91.1916 32.0361 89.0806 36.0637 85.6714 38.0895Z" stroke="white" stroke-width="2" stroke-miterlimit="10"/>
<path d="M-23.4864 7.03314C-22.3483 12.102 -20.3233 17.2276 -17.6788 22.1711C-10.5052 35.9535 3.06151 45.7886 18.5913 40.9011C19.6981 40.5546 20.7825 40.2039 21.8496 39.8587C28.9406 37.5651 35.2664 35.5191 42.3141 36.6226C45.8192 37.1806 49.3944 38.3537 53.3071 40.381M-23.4864 7.03314L-22.481 6.89728C-22.481 6.89706 -22.4811 6.89684 -22.4811 6.89662M-23.4864 7.03314L-22.4811 6.89662M-23.4864 7.03314C-26.423 -6.08882 -30.1586 -26.9222 -19.0763 -34.3154C-16.6319 -35.9543 -11.5944 -34.6622 -6.61204 -33.3841C-2.12274 -32.2326 2.32181 -31.0925 4.78439 -32.1185C8.06938 -33.5125 11.1571 -35.0101 14.1744 -36.4736C20.1323 -39.3634 25.8153 -42.1197 32.1987 -43.6815C39.7272 -45.4715 45.4987 -50.706 51.2517 -55.9238C56.2466 -60.454 61.2276 -64.9716 67.3326 -67.2112L53.3071 40.381M-22.4811 6.89662C-21.3656 11.8645 -19.3768 16.9052 -16.7679 21.7821L-16.7624 21.7924L-16.7625 21.7924C-13.2461 28.5482 -8.19316 34.2746 -2.19151 37.7146C3.78049 41.1376 10.7356 42.3264 18.2055 39.9755L18.207 39.9751C19.2966 39.634 20.3712 39.2858 21.4348 38.9411C28.503 36.6508 35.0894 34.5165 42.411 35.663L42.4137 35.6634C46.044 36.2413 49.7293 37.4537 53.7322 39.5257M-22.4811 6.89662C-23.948 0.341971 -25.5932 -8.05401 -25.5102 -15.7103C-25.4267 -23.4109 -23.598 -30.0692 -18.4448 -33.507L-18.443 -33.5082C-17.5873 -34.0819 -16.1642 -34.2393 -14.1667 -34.016C-12.2066 -33.7969 -9.92995 -33.2425 -7.5527 -32.6353C-7.3066 -32.5725 -7.05937 -32.5091 -6.81144 -32.4454C-4.69936 -31.9035 -2.53682 -31.3487 -0.587431 -31.0284C1.55406 -30.6765 3.66867 -30.563 5.25352 -31.2233L5.25944 -31.2258C8.5662 -32.6291 11.6933 -34.1457 14.723 -35.6151C16.1877 -36.3254 17.6295 -37.0247 19.058 -37.6948C23.4685 -39.764 27.8085 -41.585 32.5183 -42.7376C39.8256 -44.476 45.4878 -49.3231 50.851 -54.167C51.2211 -54.5013 51.5898 -54.8355 51.9575 -55.1688C56.9886 -59.7297 61.8376 -64.1255 67.7568 -66.2986C68.7788 -66.6586 70.1188 -66.5646 71.7945 -66.0672C73.4613 -65.5724 75.3139 -64.7237 77.2717 -63.746C77.9561 -63.4043 78.6589 -63.0438 79.3673 -62.6805C80.6445 -62.0254 81.9402 -61.3608 83.1807 -60.779C85.1171 -59.8708 87.062 -59.0928 88.8403 -58.7886L88.8861 -58.7807L88.932 -58.7768L88.9689 -58.7736C89.5695 -58.7217 90.2589 -58.6621 90.9055 -58.6952C91.5633 -58.7288 92.2833 -58.861 92.8949 -59.2711C101.408 -64.5031 111.805 -63.4892 121.515 -59.037C124.349 -57.7376 127.338 -55.9253 129.938 -52.6722C129.999 -52.5724 130.063 -52.4954 130.112 -52.4422C130.167 -52.3815 130.225 -52.3278 130.261 -52.2957L130.306 -52.2357C133.755 -47.6954 135.586 -41.7317 136.005 -36.1266C136.426 -30.4939 135.408 -25.4331 133.404 -22.6477L133.399 -22.6407C131.479 -19.9171 128.92 -18.3644 126.112 -16.9505C125.581 -16.6828 125.036 -16.4185 124.484 -16.1507C122.164 -15.0252 119.715 -13.8376 117.577 -12.0721L117.558 -12.0564L117.54 -12.0398L117.509 -12.0109C116.266 -10.8661 114.946 -9.64997 113.894 -8.17484C110.993 -4.44401 109.161 0.0925244 107.794 4.74214C106.865 7.90457 106.136 11.1772 105.44 14.3037C105.115 15.761 104.798 17.1865 104.471 18.5542L104.47 18.5545C104.043 20.3422 103.647 22.313 103.231 24.3852C102.444 28.3019 101.585 32.5812 100.301 36.6735C98.3434 42.916 95.4983 48.3289 90.7815 50.9057C86.5921 53.1582 81.4669 52.4969 76.6138 50.9592C72.8613 49.7477 69.1496 47.8507 65.3484 45.7587C64.4373 45.2573 63.5195 44.7438 62.5954 44.2267C59.6996 42.6064 56.7414 40.9511 53.7322 39.5257M53.7322 39.5257C53.726 39.5227 53.7198 39.5198 53.7136 39.5168L53.3071 40.381M53.7322 39.5257C53.7383 39.5288 53.7443 39.5319 53.7504 39.5351L53.3071 40.381" stroke="white" stroke-width="2" stroke-miterlimit="10"/>
<path d="M-44.037 7.42439C-42.7028 13.863 -40.0176 20.2219 -36.8679 26.4441M-44.037 7.42439L49.954 49.3532C45.1983 46.9397 40.991 45.4768 36.7553 44.8166C27.8565 43.446 19.7957 46.0877 10.4581 49.1479C9.75469 49.3785 9.04405 49.6114 8.32525 49.8451C-11.2674 56.245 -28.0373 43.5451 -36.8679 26.4441M-44.037 7.42439L-44.045 7.38714C-47.543 -8.90382 -53.3102 -35.7628 -39.4828 -44.9108M-44.037 7.42439L-39.4828 -44.9108M-36.8679 26.4441L-35.9499 26.0685C-35.9493 26.0697 -35.9486 26.0709 -35.948 26.0721M-36.8679 26.4441L-35.9461 26.0759C-35.9468 26.0746 -35.9474 26.0734 -35.948 26.0721M50.3788 48.4979C54.362 50.4215 58.2081 52.6587 61.9641 54.8435C62.7818 55.3192 63.5953 55.7924 64.405 56.2594C68.9604 58.8863 73.4105 61.3244 77.9688 63.0156C83.9398 65.1776 90.474 66.3504 95.9794 63.5442L95.9828 63.5425C102.036 60.4867 105.604 53.6544 107.99 45.8158C109.571 40.6266 110.588 35.1796 111.504 30.2773C111.973 27.7675 112.416 25.4004 112.893 23.2838C113.226 21.7615 113.552 20.1805 113.886 18.5632C114.714 14.5482 115.588 10.3093 116.73 6.18886C118.335 0.399816 120.494 -5.2606 123.88 -9.92662C125.129 -11.7825 126.647 -13.3779 128.36 -14.857C131.034 -17.2333 134.154 -18.7585 137.133 -20.2144C137.702 -20.4926 138.267 -20.7683 138.821 -21.0469C142.321 -22.8045 145.553 -24.7152 147.97 -28.1374L147.974 -28.143C150.475 -31.6267 151.693 -37.9312 151.115 -44.9455C150.539 -51.9301 148.198 -59.4131 143.824 -65.1949L143.746 -65.298C143.743 -65.3019 143.739 -65.3057 143.736 -65.3093C143.641 -65.4092 143.499 -65.5686 143.381 -65.798C140.082 -69.9413 136.408 -72.1787 132.955 -73.7619L132.947 -73.7657L132.939 -73.7697C121.219 -79.3722 108.417 -80.7837 97.8102 -74.2914L97.7996 -74.2849L97.7888 -74.2787C96.3181 -73.4311 94.7096 -73.6229 93.0341 -73.9247L93.0052 -73.9299L92.9766 -73.9366C90.8636 -74.4325 88.5149 -75.5591 86.1527 -76.862C84.6852 -77.6714 83.1511 -78.5847 81.6322 -79.4891C80.714 -80.0358 79.8013 -80.5792 78.9122 -81.0943C76.5089 -82.4869 74.2295 -83.703 72.1984 -84.4266C70.1461 -85.1577 68.5454 -85.3135 67.3691 -84.8453L67.3663 -84.8442C60.3184 -82.0642 54.7011 -76.4016 48.9086 -70.5624C48.3755 -70.025 47.841 -69.4862 47.3037 -68.948C41.011 -62.644 34.3465 -56.4364 25.4125 -54.548C19.2428 -53.2003 13.7329 -50.8791 8.23118 -48.2519C6.56889 -47.4581 4.90156 -46.6332 3.21611 -45.7994C-0.646644 -43.8885 -4.60451 -41.9305 -8.81469 -40.1915M50.3788 48.4979L-9.28335 -41.0868M50.3788 48.4979C45.5482 46.0473 41.2286 44.5391 36.8513 43.8569L36.8494 43.8566C27.684 42.4448 19.3888 45.1659 10.1171 48.2072C9.39445 48.4443 8.66582 48.6833 7.93038 48.9224L7.92912 48.9228C-1.56698 52.0247 -10.331 50.4988 -17.8143 46.1388C-25.3301 41.76 -31.6003 34.4905 -35.948 26.0721M50.3788 48.4979L-39.4828 -44.9108M-8.81469 -40.1915C-8.81543 -40.1912 -8.81618 -40.1909 -8.81692 -40.1905L-9.28335 -41.0868M-8.81469 -40.1915C-8.81396 -40.1918 -8.81322 -40.1921 -8.81248 -40.1924L-9.28335 -41.0868M-8.81469 -40.1915C-10.7165 -39.396 -13.3259 -39.6047 -16.0202 -40.135C-18.5065 -40.6243 -21.2833 -41.4373 -24.0106 -42.2358C-24.2903 -42.3176 -24.5695 -42.3994 -24.8478 -42.4806C-27.8746 -43.3639 -30.7991 -44.1871 -33.3157 -44.5647C-35.878 -44.9492 -37.7412 -44.8246 -38.857 -44.0986M-9.28335 -41.0868C-12.325 -39.813 -18.0235 -41.481 -23.7783 -43.1656C-30.0874 -45.0123 -36.4644 -46.8789 -39.4828 -44.9108M-38.857 -44.0986C-38.8561 -44.0992 -38.8552 -44.0998 -38.8542 -44.1004L-39.4828 -44.9108M-38.857 -44.0986C-38.8578 -44.0981 -38.8586 -44.0975 -38.8594 -44.097L-39.4828 -44.9108M-38.857 -44.0986C-45.3618 -39.793 -47.3856 -31.2114 -47.2324 -21.3629C-47.08 -11.5665 -44.7819 -0.863244 -43.0298 7.29673L-43.0283 7.30349C-41.7197 13.619 -39.0791 19.8864 -35.948 26.0721" stroke="white" stroke-width="2" stroke-miterlimit="10"/>
<path d="M121.219 28.1893L121.218 28.1943C120.718 30.5745 120.253 33.2392 119.759 36.0716C118.717 42.0401 117.545 48.7535 115.641 55.1197C112.833 64.5034 108.53 72.7338 101.077 76.3657C94.4982 79.4965 86.6014 77.9425 79.3131 75.0626C73.9508 72.8904 68.7766 69.946 63.5254 66.8112C62.545 66.2259 61.5612 65.6336 60.5733 65.0388C56.2923 62.4612 51.9316 59.8356 47.4116 57.5247C41.8791 54.6335 36.7725 52.883 31.8285 52.0528L31.8177 52.0511C20.4716 50.2595 10.332 53.6447 -1.39898 57.561C-1.60901 57.6311 -1.81955 57.7014 -2.03062 57.7719L-2.03128 57.7721C-13.5547 61.6264 -24.0904 59.7518 -33.04 54.4608C-42.0262 49.1481 -49.4617 40.357 -54.6125 30.345C-58.4006 22.9319 -61.5503 15.381 -63.2104 7.73307L-63.2119 7.72657C-63.2658 7.48611 -63.3202 7.24359 -63.3751 6.99908C-65.5181 -2.54756 -68.3418 -15.1265 -68.7073 -26.7226C-69.084 -38.6712 -66.8356 -49.2046 -58.9931 -54.4554C-57.6097 -55.3352 -55.2999 -55.421 -52.1781 -54.8751C-49.1055 -54.3377 -45.5335 -53.245 -41.8579 -52.0858C-41.5459 -51.9874 -41.2332 -51.8886 -40.9201 -51.7896C-37.5788 -50.7332 -34.1899 -49.6618 -31.1696 -49.0032C-27.9188 -48.2944 -24.82 -47.9951 -22.6081 -48.9247L-22.604 -48.9264C-17.7708 -50.9838 -13.2286 -53.2769 -8.79488 -55.5152C-6.55893 -56.6441 -4.35057 -57.7589 -2.14639 -58.8226C4.46504 -62.0132 11.1261 -64.7909 18.6866 -66.3118L18.6926 -66.3131C29.0986 -68.471 36.7177 -76.0133 43.9275 -83.7538C44.5853 -84.46 45.2397 -85.1678 45.8926 -85.874C52.4822 -93.0013 58.9185 -99.9628 67.1267 -103.434L67.1332 -103.437C68.4801 -104.018 70.3506 -103.802 72.7702 -102.846C75.1603 -101.902 77.8574 -100.327 80.6913 -98.527C81.8647 -97.7815 83.0767 -96.987 84.2925 -96.1899C85.9541 -95.1006 87.6229 -94.0065 89.2103 -93.0265C91.9718 -91.3216 94.6871 -89.8308 97.0924 -89.097C99.2468 -88.3638 101.142 -88.2814 102.759 -89.1578L102.781 -89.1698L102.802 -89.183C115.34 -96.8742 130.75 -94.9726 144.431 -88.3561C148.594 -86.3339 152.967 -83.6557 156.973 -78.5952C156.982 -78.5808 156.99 -78.5676 156.997 -78.5556C157.032 -78.5001 157.067 -78.4515 157.096 -78.4132C157.148 -78.3444 157.206 -78.2769 157.242 -78.2341L157.248 -78.2268C157.269 -78.202 157.285 -78.1836 157.297 -78.1693L157.314 -78.1265L157.401 -78.0114C162.666 -71.0653 165.481 -62.0566 166.202 -53.6652C166.925 -45.2429 165.522 -37.6548 162.596 -33.493C159.631 -29.276 155.696 -26.9608 151.493 -24.8581C150.836 -24.5293 150.17 -24.2047 149.499 -23.8779C145.921 -22.1357 142.212 -20.329 139.06 -17.4706C137.072 -15.7386 135.368 -13.7687 133.889 -11.7138L133.888 -11.7112C129.848 -6.05528 127.371 0.777744 125.559 7.74229C124.383 12.264 123.474 16.9041 122.607 21.3292C122.144 23.6943 121.693 25.998 121.219 28.1893Z" stroke="white" stroke-width="2" stroke-miterlimit="10"/>
<path d="M177.436 -38.7586L177.432 -38.7528C174.046 -33.8603 169.488 -31.1643 164.606 -28.7029C163.85 -28.3219 163.084 -27.9457 162.313 -27.5669C158.144 -25.5194 153.823 -23.397 150.132 -20.0413C147.89 -18.0751 145.832 -15.6819 144.152 -13.2442C139.549 -6.63171 136.689 1.30027 134.612 9.39441C133.137 15.1399 132.045 21.0202 131.011 26.5887C130.591 28.8515 130.18 31.0628 129.757 33.1927C129.213 35.862 128.705 38.866 128.163 42.0709C126.984 49.0424 125.644 56.9643 123.419 64.4587C120.169 75.4015 115.128 85.0288 106.323 89.141C98.4254 92.8215 89.0638 90.6117 80.6453 87.0996C74.5196 84.5208 68.6548 81.0293 62.7293 77.3381C61.7199 76.7093 60.7084 76.0744 59.6935 75.4375C54.7747 72.3504 49.7798 69.2155 44.5932 66.4971C38.3633 63.1682 32.4655 61.1734 26.7912 60.2416C13.7204 58.0688 2.02983 62.0189 -11.7745 66.7125C-25.3537 71.2495 -37.6775 68.9912 -48.1021 62.7501C-58.5645 56.4864 -67.1632 46.1759 -73.116 34.5747C-77.3552 26.0219 -81.0683 17.0468 -83.0796 8.06989C-83.2465 7.3247 -83.4184 6.56108 -83.5941 5.78063C-86.0413 -5.09035 -89.2239 -19.2281 -89.7835 -32.3375C-90.3861 -46.4544 -87.9248 -58.9767 -78.7102 -65.1001L-78.7043 -65.1041C-77.0804 -66.2012 -74.3441 -66.29 -70.6704 -65.6081C-67.0564 -64.9373 -62.8433 -63.5845 -58.5199 -62.1499C-58.1079 -62.0132 -57.6949 -61.8757 -57.2815 -61.7382C-53.3921 -60.4437 -49.463 -59.1361 -45.9668 -58.314C-42.1587 -57.4187 -38.5718 -57.021 -36.0526 -58.081C-30.3381 -60.466 -24.9691 -63.1951 -19.7024 -65.8722C-17.2186 -67.1347 -14.7576 -68.3857 -12.2938 -69.5835C-4.56916 -73.3391 3.26719 -76.6196 12.218 -78.3137L12.2206 -78.3142C24.2324 -80.6191 32.8841 -89.5169 41.0429 -98.7233C41.8581 -99.6431 42.6683 -100.566 43.4767 -101.487C50.8497 -109.884 58.0618 -118.097 67.335 -122.156C68.8487 -122.785 70.9921 -122.456 73.777 -121.239C76.5246 -120.039 79.6376 -118.091 82.9038 -115.882C84.2545 -114.968 85.6443 -114 87.0378 -113.03C88.9596 -111.692 90.8885 -110.349 92.7314 -109.136C95.9256 -107.033 99.0474 -105.193 101.794 -104.241C104.063 -103.44 106.474 -103.078 108.268 -104.219C122.735 -113.105 140.383 -110.764 156.23 -103.041C161.086 -100.586 166.142 -97.4781 170.845 -91.5289C170.955 -91.3141 171.084 -91.1626 171.153 -91.0815L171.164 -91.0685C171.191 -91.0373 171.206 -91.0187 171.213 -91.0089L171.256 -90.9004L171.341 -90.7877C177.424 -82.6514 180.713 -72.1135 181.579 -62.3164C182.447 -52.487 180.859 -43.6192 177.436 -38.7586Z" stroke="white" stroke-width="2" stroke-miterlimit="10"/>
<path d="M111.345 101.837L111.355 101.832C121.589 97.2167 127.329 86.2031 130.975 73.6975C133.432 65.2659 134.892 56.353 136.182 48.4787C136.806 44.671 137.39 41.1062 138.028 37.9561M111.345 101.837L139.039 38.2019M111.345 101.837C102.431 105.974 91.5034 103.287 81.9718 99.1494C75.0472 96.0898 68.4493 92.0587 61.7777 87.8504C60.9722 87.3424 60.1655 86.8316 59.3571 86.3197C53.4909 82.6056 47.5334 78.8336 41.2879 75.6093C34.2296 71.9027 27.7025 69.6154 21.2902 68.5798C6.70122 66.0592 -6.38297 70.4186 -22.0403 75.6571L-22.0483 75.6599C-37.6281 81.0212 -51.7647 78.426 -63.7042 71.2442C-75.6843 64.038 -85.5 52.1794 -92.2541 38.9859L-92.2561 38.9822C-97.3606 29.1096 -101.578 18.86 -103.785 8.51765L-103.786 8.51438C-104.116 6.99416 -104.468 5.40438 -104.832 3.75568C-107.501 -8.31305 -110.868 -23.539 -111.593 -37.7487C-112.419 -53.9666 -109.775 -68.4369 -99.2142 -75.5078L-99.2106 -75.5102C-97.3973 -76.7366 -94.2653 -76.7746 -90.0513 -75.9202C-85.9085 -75.0801 -81.0567 -73.4537 -76.0837 -71.7432C-75.6895 -71.6077 -75.2945 -71.4715 -74.8992 -71.3353C-70.3427 -69.7649 -65.7351 -68.177 -61.6496 -67.1771C-59.4254 -66.6327 -57.3181 -66.2527 -55.4276 -66.1487C-53.5442 -66.0451 -51.8083 -66.2113 -50.3738 -66.8165C-43.7787 -69.5715 -37.6177 -72.7405 -31.5769 -75.8476C-28.7611 -77.2959 -25.9715 -78.7308 -23.1762 -80.1041C-14.346 -84.4421 -5.37162 -88.2148 4.97145 -90.0822L4.97669 -90.0832C18.5568 -92.6075 28.1991 -102.843 37.295 -113.492C38.2315 -114.588 39.1623 -115.69 40.0915 -116.789C43.7085 -121.068 47.3015 -125.319 51.1156 -129.152C55.9024 -133.964 60.9803 -138.056 66.7739 -140.651L111.345 101.837ZM138.028 37.9561C138.028 37.9554 138.028 37.9547 138.028 37.954L139.039 38.2019M138.028 37.9561C138.028 37.9564 138.028 37.9567 138.027 37.9569L139.039 38.2019M138.028 37.9561C138.548 35.3415 139.049 32.6169 139.562 29.8254C140.692 23.6729 141.883 17.1955 143.473 10.8552C145.789 1.62246 148.977 -7.43602 154.148 -15.0084M139.039 38.2019C139.564 35.5612 140.067 32.822 140.582 30.0225C143.352 14.9454 146.444 -1.87804 155.026 -14.4447M154.148 -15.0084C154.147 -15.0072 154.146 -15.0059 154.145 -15.0047L155.026 -14.4447M154.148 -15.0084C154.149 -15.0099 154.15 -15.0113 154.151 -15.0127L155.026 -14.4447M154.148 -15.0084L155.026 -14.4447M184.916 -103.672C184.946 -103.643 184.976 -103.614 185.008 -103.585L185.686 -104.27L184.862 -103.745C184.88 -103.721 184.898 -103.696 184.916 -103.672ZM167.516 -117.722C167.517 -117.721 167.519 -117.72 167.52 -117.719L167.941 -118.576L167.513 -117.723C167.514 -117.723 167.515 -117.722 167.516 -117.722ZM105.808 -119.342C105.816 -119.339 105.824 -119.336 105.832 -119.334L106.137 -120.24L105.785 -119.352C105.793 -119.349 105.8 -119.345 105.808 -119.342Z" stroke="white" stroke-width="2" stroke-miterlimit="10"/>
<path d="M83.239 111.049L83.2455 111.052C93.9237 115.947 106.225 119.031 116.535 114.476C128.102 109.308 134.579 96.8905 138.666 82.8286C141.478 73.1564 143.111 62.9021 144.542 53.9253C145.19 49.854 145.797 46.0455 146.453 42.6733M83.239 111.049L147.465 42.9145M83.239 111.049C75.5454 107.58 68.242 103.08 60.8815 98.3812C59.847 97.7209 58.8112 97.0565 57.773 96.3906C51.4465 92.3327 45.0335 88.2194 38.3187 84.6377C30.5014 80.3475 23.1833 77.8168 16.1999 76.634L16.1955 76.6332C-0.00381752 73.9553 -14.6785 78.6212 -31.9994 84.5083L-32.0019 84.5091C-49.6398 90.5554 -65.5669 87.576 -78.9828 79.4426C-92.4403 71.2839 -103.419 57.9039 -110.975 43.1202L-110.978 43.1145C-116.741 32.0117 -121.465 20.4819 -124.024 8.81158L83.239 111.049ZM146.453 42.6733L147.465 42.9145M146.453 42.6733C146.453 42.6741 146.453 42.6749 146.453 42.6758L147.465 42.9145M146.453 42.6733C147.019 39.721 147.561 36.6373 148.118 33.4731C149.326 26.6012 150.602 19.3495 152.326 12.2378C154.847 1.83303 158.352 -8.3915 164.094 -16.9263L164.099 -16.9345C166.315 -20.1502 168.666 -23.109 171.518 -25.7358M147.465 42.9145C148.036 39.9347 148.581 36.8355 149.139 33.6625C152.109 16.7741 155.447 -2.20306 164.973 -16.3633C167.168 -19.5488 169.476 -22.4499 172.262 -25.0155M171.518 -25.7358C171.517 -25.7348 171.516 -25.7338 171.515 -25.7328L172.262 -25.0155M171.518 -25.7358L172.262 -25.0155M171.518 -25.7358C176.2 -30.0888 181.735 -32.8063 187.118 -35.4493C188.046 -35.9048 188.969 -36.3581 189.883 -36.8171C196.138 -39.9599 202.036 -43.4073 206.419 -49.7016M172.262 -25.0155C176.837 -29.2704 182.234 -31.9217 187.621 -34.568C194.874 -38.1308 202.108 -41.6844 207.292 -49.1296M207.292 -49.1296L206.417 -49.6985C206.418 -49.6995 206.419 -49.7006 206.419 -49.7016M207.292 -49.1296C216.271 -62.2472 215.132 -95.7223 199.207 -117.229M207.292 -49.1296L206.421 -49.7042C206.421 -49.7034 206.42 -49.7025 206.419 -49.7016M206.419 -49.7016C210.74 -56.0171 212.708 -67.4181 211.564 -80.019C210.425 -92.56 206.22 -106.082 198.434 -116.634M199.207 -117.229L198.529 -116.544C198.496 -116.574 198.464 -116.604 198.434 -116.634M199.207 -117.229L198.378 -116.709C198.397 -116.684 198.416 -116.659 198.434 -116.634M199.207 -117.229L178.949 -132.452M198.434 -116.634C198.261 -116.805 198.138 -116.976 198.061 -117.081L198.049 -117.099C197.947 -117.24 197.915 -117.277 197.882 -117.306L197.805 -117.376L197.743 -117.457C191.827 -125.171 185.162 -129.258 178.949 -132.452M178.949 -132.452C178.951 -132.451 178.953 -132.45 178.955 -132.449L179.383 -133.302M178.949 -132.452L198.56 -117.991C192.502 -125.891 185.668 -130.072 179.383 -133.302M178.949 -132.452C159.141 -142.337 136.636 -145.622 117.985 -134.24M178.949 -132.452L-119.939 -87.0009C-114.829 -90.3988 -103.109 -86.2511 -91.464 -82.1302C-80.6695 -78.3102 -69.94 -74.5131 -64.6009 -76.7709L-64.1292 -75.8768C-64.1289 -75.8769 -64.1286 -75.8771 -64.1284 -75.8772C-56.8941 -78.914 -50.1027 -82.418 -43.4205 -85.8657C-40.154 -87.551 -36.9136 -89.2229 -33.6603 -90.8202C-23.7108 -95.705 -13.5437 -99.9473 -1.80496 -101.989L-1.8035 -101.989C13.2963 -104.637 23.9439 -116.173 33.977 -128.265C35.0741 -129.587 36.1639 -130.917 37.252 -132.244C41.1748 -137.029 45.0755 -141.787 49.2151 -146.09C54.4965 -151.58 60.1073 -156.262 66.5263 -159.236L66.5268 -159.237C68.4083 -160.11 71.1032 -159.632 74.6094 -157.942C78.062 -156.278 81.9931 -153.589 86.1172 -150.55C87.8077 -149.304 89.5409 -147.991 91.2791 -146.675C93.7296 -144.818 96.1899 -142.955 98.5537 -141.261C102.606 -138.358 106.551 -135.821 110.011 -134.478L110.022 -134.474C112.878 -133.399 115.751 -132.798 117.985 -134.24M178.949 -132.452C178.947 -132.453 178.945 -132.454 178.943 -132.455L179.383 -133.302M178.949 -132.452L179.383 -133.302M117.985 -134.24C117.988 -134.243 117.992 -134.245 117.996 -134.248L117.374 -135.062L117.974 -134.234C117.978 -134.236 117.981 -134.238 117.985 -134.24Z" stroke="white" stroke-width="2" stroke-miterlimit="10"/>
<path d="M84.5662 123.091L84.5636 123.09C76.0725 119.14 68.0365 114.101 59.9837 108.91C59.0971 108.339 58.2101 107.765 57.3223 107.191C50.168 102.566 42.9596 97.9063 35.4387 93.9372C26.7888 89.2671 18.8398 86.4442 11.1186 85.1582C-6.59738 82.1329 -22.7156 87.0634 -41.8452 93.6413C-61.6215 100.396 -79.3646 97.0769 -94.2673 88.0156C-109.213 78.9285 -121.355 64.0285 -129.74 47.584C-136.011 35.1983 -141.241 22.3869 -144.151 9.38947C-144.677 6.98768 -145.252 4.4381 -145.854 1.76917C-149.189 -13.0141 -153.35 -31.4593 -154.444 -48.7369C-155.74 -69.2074 -152.693 -87.5818 -139.39 -96.4079L-139.386 -96.4111C-138.227 -97.1901 -136.644 -97.5886 -134.644 -97.6352C-132.644 -97.6817 -130.294 -97.3747 -127.675 -96.8044C-122.431 -95.6625 -116.291 -93.5087 -110.025 -91.2564C-109.529 -91.0778 -109.031 -90.8985 -108.533 -90.7192C-102.787 -88.6497 -96.9973 -86.5646 -91.8788 -85.2359C-89.0937 -84.5129 -86.4683 -84.003 -84.1256 -83.8454C-81.7908 -83.6883 -79.6639 -83.8758 -77.9272 -84.6108C-69.8113 -88.0181 -62.2443 -91.957 -54.8038 -95.8302C-51.2149 -97.6984 -47.6554 -99.5513 -44.0779 -101.322C-33.0426 -106.783 -21.7355 -111.519 -8.52438 -113.756L-8.52168 -113.757C8.14061 -116.624 19.7773 -129.491 30.7477 -143.027C31.9536 -144.515 33.1515 -146.011 34.3478 -147.506C38.6293 -152.854 42.8905 -158.177 47.4216 -162.991C53.2121 -169.142 59.3834 -174.394 66.4778 -177.724C68.5661 -178.694 71.5535 -178.121 75.4161 -176.194C79.2216 -174.295 83.5557 -171.244 88.0978 -167.802C89.9869 -166.371 91.9234 -164.863 93.8645 -163.351C96.5379 -161.268 99.2202 -159.179 101.8 -157.274C106.266 -153.976 110.602 -151.092 114.402 -149.53C117.604 -148.183 120.754 -147.705 123.125 -149.176C143.56 -161.72 168.47 -158.036 190.449 -147.038C197.281 -143.561 204.698 -138.901 211.32 -130.277L211.382 -130.196L211.456 -130.13C211.456 -130.13 211.456 -130.13 211.457 -130.13C211.459 -130.127 211.471 -130.114 211.495 -130.081C211.509 -130.063 211.523 -130.044 211.538 -130.022C211.562 -129.986 211.59 -129.945 211.625 -129.89L211.643 -129.862C211.725 -129.737 211.869 -129.515 212.066 -129.315C220.717 -117.669 225.421 -102.666 226.717 -88.7417C228.019 -74.7569 225.866 -62.0737 221.046 -55.059C216.191 -47.9932 209.63 -44.1527 202.691 -40.6698C201.671 -40.1578 200.641 -39.6528 199.606 -39.1456C193.641 -36.2221 187.525 -33.225 182.373 -28.3957L182.365 -28.3879L182.356 -28.38C179.337 -25.403 176.582 -22.1783 174.153 -18.5626L174.15 -18.5589C167.841 -9.06384 164.006 2.28824 161.245 13.833C159.4 21.5456 158.024 29.4019 156.717 36.8641C156.07 40.5518 155.441 44.1432 154.781 47.5734L154.781 47.5743C154.071 51.2802 153.417 55.4804 152.716 59.9794C151.168 69.9175 149.393 81.3133 146.29 92.0586C141.781 107.671 134.566 121.49 121.564 127.162L121.56 127.164C110.23 132.179 96.3593 128.613 84.5662 123.091ZM122.049 128.051C144.701 118.169 149.944 84.5144 153.746 60.1108C154.444 55.6318 155.094 51.4645 155.793 47.813C156.459 44.3531 157.091 40.7461 157.738 37.0506C160.994 18.4627 164.643 -2.36663 175.032 -18C177.424 -21.5606 180.14 -24.7401 183.122 -27.6808L122.049 128.051Z" stroke="white" stroke-width="2" stroke-miterlimit="10"/>
<path d="M85.8933 135.134L85.8865 135.13C76.6004 130.701 67.872 125.112 59.1061 119.376C58.3578 118.886 57.6092 118.395 56.8599 117.904C48.8525 112.655 40.7719 107.358 32.2411 102.858C22.7491 97.802 14.0173 94.7367 5.72626 93.3026C-13.5714 89.7839 -31.0872 95.1275 -52.0175 102.394L-52.0184 102.394C-73.717 109.95 -93.2348 106.283 -109.634 96.2747C-126.077 86.2398 -139.434 69.7932 -148.62 51.7594L-148.621 51.7588C-155.498 38.2767 -161.386 24.2352 -164.547 9.73236L-164.547 9.73148C-165.154 6.96183 -165.823 4.00899 -166.525 0.909797C-170.185 -15.2339 -174.744 -35.3486 -175.999 -54.2248C-177.5 -76.7978 -174.235 -97.1365 -159.585 -106.913C-158.288 -107.773 -156.521 -108.201 -154.3 -108.235C-152.08 -108.269 -149.476 -107.91 -146.579 -107.259C-140.779 -105.956 -133.992 -103.531 -127.078 -101.004C-126.547 -100.809 -126.014 -100.614 -125.482 -100.419C-119.122 -98.0901 -112.722 -95.7462 -107.072 -94.2482C-104.006 -93.4354 -101.121 -92.8605 -98.5527 -92.6761C-95.9933 -92.4924 -93.6728 -92.6905 -91.7862 -93.4891C-82.7393 -97.2376 -74.3147 -101.625 -66.0176 -105.945C-62.1694 -107.949 -58.3486 -109.939 -54.5059 -111.844C-42.3368 -117.877 -29.8509 -123.117 -15.2443 -125.528C3.0107 -128.542 15.6375 -142.742 27.5386 -157.74C28.8653 -159.411 30.183 -161.094 31.4993 -162.774C36.1238 -168.678 40.7295 -174.557 45.6355 -179.875C51.9316 -186.701 58.6608 -192.53 66.4319 -196.217L66.4368 -196.219C68.7166 -197.316 71.9979 -196.661 76.2356 -194.495C80.4099 -192.361 85.1728 -188.937 90.1596 -185.08C92.2442 -183.468 94.3792 -181.771 96.5182 -180.071C99.4435 -177.746 102.376 -175.415 105.197 -173.287C110.094 -169.593 114.834 -166.369 118.965 -164.626C122.579 -163.088 125.931 -162.509 128.613 -164.054L128.624 -164.061L128.635 -164.067C151.164 -177.863 178.534 -173.636 202.471 -161.624C209.932 -157.859 218.038 -152.767 225.364 -143.237L225.38 -143.217L225.397 -143.197C225.511 -143.063 225.588 -142.947 225.697 -142.78C225.801 -142.621 225.935 -142.415 226.131 -142.18C235.619 -129.339 240.807 -112.788 242.25 -97.4414C243.698 -82.0504 241.36 -68.0861 236.043 -60.3711C230.688 -52.6021 223.462 -48.3678 215.843 -44.5265C214.739 -43.9698 213.625 -43.4207 212.506 -42.8695C205.95 -39.6384 199.246 -36.3351 193.608 -31.0198C190.097 -27.8832 187.139 -24.2699 184.52 -20.2893C177.535 -9.88026 173.33 2.61287 170.337 15.3161C168.324 23.8621 166.847 32.5618 165.448 40.8032C164.771 44.7937 164.112 48.6767 163.419 52.3828C162.611 56.5325 161.87 61.2647 161.074 66.3445C159.377 77.1838 157.433 89.6052 154.058 101.324C149.102 118.537 141.162 133.793 126.804 139.945C114.079 145.376 98.8385 141.415 85.8933 135.134Z" stroke="white" stroke-width="2" stroke-miterlimit="10"/>
<path d="M87.2121 147.172L87.2085 147.17C77.1271 142.26 67.6667 136.132 58.1843 129.835C57.2145 129.191 56.2443 128.545 55.2731 127.899C46.7683 122.237 38.1933 116.529 29.1549 111.598L29.1499 111.595C18.9696 106.107 9.6015 102.749 0.572649 101.212C-20.4884 97.5835 -39.2345 103.286 -62.0225 111.099L-62.0258 111.1C-85.8612 119.364 -107.209 115.323 -125.103 104.369C-143.042 93.387 -157.562 75.4195 -167.549 55.7967L-167.55 55.7943C-175.082 41.0891 -181.324 25.7208 -184.838 9.88634C-185.525 6.75747 -186.289 3.41142 -187.091 -0.106636C-191.101 -17.6797 -196.09 -39.5446 -197.518 -60.0713C-198.375 -72.3827 -197.944 -84.1508 -195.278 -94.1761C-192.614 -104.194 -187.734 -112.415 -179.732 -117.737C-178.296 -118.678 -176.345 -119.136 -173.906 -119.162C-171.467 -119.187 -168.61 -118.779 -165.438 -118.053C-159.087 -116.6 -151.659 -113.919 -144.101 -111.125C-143.495 -110.9 -142.888 -110.676 -142.281 -110.451C-135.351 -107.884 -128.388 -105.306 -122.24 -103.642C-118.892 -102.736 -115.747 -102.09 -112.95 -101.869C-110.161 -101.649 -107.642 -101.844 -105.599 -102.688L-105.593 -102.69C-95.951 -106.752 -86.9571 -111.467 -78.0956 -116.113C-73.7301 -118.402 -69.3967 -120.673 -65.0339 -122.842C-51.7723 -129.433 -38.1317 -135.132 -22.1283 -137.717L-22.1272 -137.717C-2.39063 -140.927 11.2385 -156.42 24.0842 -172.843C25.5517 -174.719 27.0091 -176.608 28.465 -178.495C33.4189 -184.915 38.3552 -191.313 43.6106 -197.109C50.4043 -204.601 57.6692 -211.013 66.0656 -215.08C68.5539 -216.275 72.133 -215.514 76.7319 -213.097C81.2644 -210.715 86.4373 -206.911 91.8492 -202.634C94.1238 -200.836 96.4523 -198.946 98.7846 -197.052C101.948 -194.482 105.119 -191.907 108.172 -189.552C113.487 -185.451 118.623 -181.87 123.094 -179.909C126.973 -178.133 130.72 -177.478 133.52 -179.242C158.142 -194.284 187.91 -189.654 213.85 -176.493C221.977 -172.308 230.741 -166.806 238.748 -156.441C238.988 -155.917 239.365 -155.472 239.637 -155.153L239.653 -155.134C250.031 -141.129 255.693 -123.055 257.281 -106.304C258.873 -89.5075 256.352 -74.2599 250.612 -65.8659L250.611 -65.8651C244.785 -57.3251 236.934 -52.7094 228.652 -48.5345C227.434 -47.9206 226.204 -47.3154 224.97 -46.7078C217.851 -43.2037 210.572 -39.6205 204.407 -33.8189C200.544 -30.2605 197.393 -26.2736 194.529 -22.0736L194.525 -22.0676L194.521 -22.0615C186.995 -10.622 182.475 3.03367 179.249 16.8956C177.123 26.0359 175.548 35.3257 174.053 44.1435C173.284 48.6761 172.537 53.084 171.747 57.2827C170.918 61.658 170.153 66.6351 169.332 71.9783C167.496 83.9154 165.38 97.6794 161.652 110.641C156.254 129.41 147.577 146.072 131.884 152.775L131.883 152.776C118.142 158.663 101.279 154.083 87.2121 147.172Z" stroke="white" stroke-width="2" stroke-miterlimit="10"/>
<path d="M88.5269 159.213L88.5261 159.213C77.6472 153.822 67.4683 147.189 57.2552 140.412C56.4794 139.897 55.7033 139.381 54.9267 138.865C45.498 132.6 35.9928 126.284 25.9076 120.85L25.903 120.848C14.8767 114.972 4.93806 111.471 -4.8656 109.691L-4.87143 109.69C-27.4507 105.713 -47.6429 111.681 -72.2379 120.184L-72.243 120.186C-98.0794 129.275 -121.202 124.885 -140.573 112.979C-159.988 101.044 -175.686 81.5196 -186.474 60.3069L-186.475 60.3037C-194.727 44.2168 -201.626 27.6189 -205.334 10.4226L-205.334 10.4225C-206.15 6.64053 -207.074 2.56217 -208.05 -1.74394C-212.304 -20.5241 -217.54 -43.6362 -219.116 -65.3842C-220.085 -78.7437 -219.666 -91.5245 -216.814 -102.419C-213.965 -113.307 -208.702 -122.255 -200.025 -128.052C-198.477 -129.082 -196.364 -129.58 -193.72 -129.603C-191.077 -129.627 -187.978 -129.176 -184.536 -128.378C-177.646 -126.781 -169.571 -123.844 -161.359 -120.786C-160.71 -120.544 -160.061 -120.302 -159.411 -120.06C-151.869 -117.247 -144.291 -114.421 -137.607 -112.595C-133.974 -111.602 -130.565 -110.894 -127.538 -110.648C-124.52 -110.402 -121.805 -110.61 -119.612 -111.518L-119.611 -111.518C-109.039 -115.921 -99.1892 -121.084 -89.4721 -126.176C-84.8454 -128.601 -80.2489 -131.011 -75.6192 -133.314C-61.2241 -140.477 -46.4042 -146.681 -29.0049 -149.439C-7.67879 -152.796 6.93968 -169.618 20.7162 -187.504C22.3022 -189.563 23.8772 -191.636 25.4508 -193.708C30.7498 -200.685 36.0329 -207.641 41.6654 -213.942C48.9639 -222.107 56.786 -229.098 65.8584 -233.521C68.5162 -234.804 72.3695 -233.941 77.3215 -231.282C82.2007 -228.662 87.7818 -224.497 93.6217 -219.82C96.0816 -217.85 98.5989 -215.78 101.12 -213.706C104.532 -210.899 107.952 -208.087 111.248 -205.508C116.993 -201.012 122.537 -197.084 127.351 -194.908L127.36 -194.903L127.37 -194.899C131.581 -193.086 135.382 -192.283 138.494 -194.127L138.504 -194.133C165.219 -210.429 197.295 -205.211 225.353 -191.078C234.314 -186.51 243.825 -180.436 252.48 -169.305C252.72 -168.782 253.098 -168.338 253.369 -168.018L253.383 -168.002C264.606 -152.736 270.727 -133.17 272.446 -115.051C274.17 -96.8874 271.452 -80.3897 265.237 -71.221C258.99 -62.0038 250.477 -56.9951 241.495 -52.4557C240.186 -51.7942 238.866 -51.142 237.54 -50.4874C229.808 -46.6694 221.911 -42.7697 215.262 -36.4781L215.254 -36.4705C211.207 -32.5479 207.806 -28.3354 204.738 -23.7479L204.736 -23.7455C196.533 -11.3917 191.643 3.40583 188.185 18.4274C185.888 28.4049 184.212 38.5414 182.625 48.1421C181.826 52.9729 181.05 57.6679 180.228 62.1387C179.346 66.8463 178.533 72.2132 177.66 77.9819C175.707 90.8816 173.449 105.791 169.429 119.828C163.609 140.148 154.194 158.214 137.064 165.421L137.059 165.423C121.986 171.861 103.705 166.75 88.5269 159.213Z" stroke="white" stroke-width="2" stroke-miterlimit="10"/>
<path d="M89.8463 171.257L89.8422 171.255C78.1674 165.383 67.2574 158.212 56.2793 150.923C55.8291 150.624 55.3788 150.325 54.9284 150.026C44.4137 143.042 33.806 135.997 22.4548 130.008C10.6729 123.552 -0.207494 119.856 -10.5752 117.93L-10.5819 117.928C-34.6814 113.603 -56.2668 119.983 -82.6613 129.173L-82.6633 129.174C-110.48 138.925 -135.394 134.152 -156.262 121.298C-177.174 108.416 -194.072 87.3813 -205.66 64.5814C-214.419 47.2131 -221.824 29.3344 -225.883 10.8116L-225.884 10.8104C-226.753 6.86753 -227.733 2.62141 -228.766 -1.85998C-233.449 -22.1687 -239.247 -47.3097 -241.029 -70.9557C-242.117 -85.3803 -241.703 -99.1849 -238.655 -110.947C-235.609 -122.702 -229.948 -132.36 -220.585 -138.596C-218.898 -139.707 -216.601 -140.233 -213.737 -140.244C-210.874 -140.255 -207.52 -139.751 -203.8 -138.873C-196.355 -137.115 -187.634 -133.907 -178.773 -130.574C-178.09 -130.317 -177.405 -130.059 -176.721 -129.801C-168.566 -126.728 -160.378 -123.643 -153.162 -121.648C-149.248 -120.566 -145.58 -119.793 -142.328 -119.52C-139.084 -119.248 -136.175 -119.467 -133.833 -120.439L-133.832 -120.439C-122.46 -125.184 -111.895 -130.756 -101.468 -136.255C-96.5035 -138.873 -91.57 -141.475 -86.5959 -143.963C-71.1336 -151.697 -55.1726 -158.394 -36.299 -161.348C-13.4167 -164.924 2.24226 -183.048 16.9837 -202.366C18.7236 -204.646 20.4509 -206.943 22.1766 -209.238C27.8001 -216.718 33.407 -224.176 39.3794 -230.94C47.178 -239.773 55.5359 -247.346 65.2341 -252.151C68.1297 -253.577 72.3045 -252.628 77.6325 -249.736C82.8864 -246.883 88.8907 -242.343 95.1651 -237.249C97.8318 -235.084 100.56 -232.808 103.29 -230.53C106.931 -227.493 110.577 -224.451 114.09 -221.661C120.254 -216.767 126.192 -212.497 131.337 -210.139C135.866 -208.063 139.954 -207.374 143.206 -209.247L143.217 -209.254L143.228 -209.26C171.727 -226.713 206.358 -221.139 236.422 -205.854L236.425 -205.853C246.257 -200.885 256.484 -194.358 265.708 -182.214L265.725 -182.191L265.744 -182.169C265.888 -182 266.048 -181.793 266.228 -181.562C266.392 -181.351 266.573 -181.118 266.746 -180.913C278.86 -164.483 285.455 -143.391 287.319 -123.867C289.188 -104.298 286.287 -86.5173 279.65 -76.6697L279.649 -76.669C272.931 -66.6807 263.755 -61.2791 254.089 -56.3998C252.673 -55.6854 251.246 -54.9814 249.813 -54.2751C241.501 -50.1771 233.026 -45.999 225.907 -39.2336L225.901 -39.2284C221.601 -35.0724 217.847 -30.4377 214.579 -25.4708L214.576 -25.4659C205.912 -12.1052 200.745 3.84215 197.074 20.0149C194.685 30.5419 192.919 41.2263 191.243 51.3687C190.347 56.7834 189.478 62.0436 188.553 67.043L188.552 67.0446C187.649 71.9763 186.811 77.5853 185.911 83.6134C183.821 97.6088 181.394 113.864 177.019 129.148C170.758 151.025 160.604 170.496 142.14 178.255C125.983 185.015 106.181 179.555 89.8463 171.257Z" stroke="white" stroke-width="2" stroke-miterlimit="10"/>
<path d="M91.1634 183.294L91.1617 183.293C78.6938 176.942 67.0917 169.221 55.4557 161.355C54.6879 160.836 53.9199 160.317 53.1515 159.797C42.2924 152.448 31.3523 145.045 19.6747 138.655L19.6706 138.653C7.04968 131.812 -4.46459 127.823 -15.5716 125.794L-15.5751 125.793C-41.3447 121.167 -64.5289 127.857 -92.5752 137.693L-92.5762 137.693C-122.503 148.223 -149.219 143.145 -171.566 129.38C-193.96 115.587 -212.021 93.0313 -224.438 68.5705C-233.799 50.1136 -241.767 30.813 -246.177 10.9634C-247.128 6.65474 -248.204 2.00208 -249.341 -2.91591C-254.353 -24.5938 -260.556 -51.4267 -262.502 -76.6798C-263.696 -92.1637 -263.281 -106.989 -260.033 -119.618C-256.787 -132.24 -250.728 -142.608 -240.676 -149.284L-240.676 -149.284C-238.857 -150.493 -236.38 -151.061 -233.3 -151.068C-230.221 -151.076 -226.616 -150.525 -222.62 -149.57C-214.623 -147.657 -205.255 -144.174 -195.742 -140.557C-194.991 -140.271 -194.239 -139.985 -193.487 -139.698C-184.749 -136.37 -175.982 -133.03 -168.259 -130.864C-164.062 -129.686 -160.133 -128.843 -156.654 -128.54C-153.183 -128.238 -150.078 -128.465 -147.587 -129.502L-147.586 -129.502C-135.489 -134.559 -124.229 -140.493 -113.109 -146.353C-107.714 -149.196 -102.353 -152.021 -96.9446 -154.721C-80.3424 -163.008 -63.1872 -170.176 -42.9158 -173.303L-42.9153 -173.303C-18.5529 -177.075 -1.93043 -196.478 13.7367 -217.217C15.5937 -219.675 17.4375 -222.153 19.2801 -224.629C25.2488 -232.65 31.2045 -240.653 37.5539 -247.919C45.8567 -257.42 54.7693 -265.581 65.1315 -270.779C68.1985 -272.292 72.6484 -271.239 78.3267 -268.105C83.927 -265.015 90.3393 -260.114 97.0414 -254.62C99.8926 -252.283 102.808 -249.828 105.727 -247.37C109.617 -244.095 113.513 -240.816 117.269 -237.802C123.861 -232.516 130.202 -227.901 135.689 -225.326L135.698 -225.322C140.395 -223.169 144.944 -222.247 148.322 -224.342C178.915 -243.045 215.948 -237.066 248.017 -220.631L248.025 -220.627C258.484 -215.371 269.398 -208.414 279.322 -195.373C279.423 -195.233 279.521 -195.103 279.615 -194.98C279.706 -194.862 279.793 -194.75 279.877 -194.641C280.054 -194.414 280.219 -194.201 280.397 -193.956L280.4 -193.951C293.345 -176.328 300.458 -153.706 302.508 -132.777C304.56 -111.814 301.513 -92.7645 294.378 -82.2173L294.378 -82.2167C287.161 -71.5267 277.308 -65.7669 266.955 -60.5465C265.51 -59.8178 264.053 -59.099 262.592 -58.3781C253.625 -53.9534 244.494 -49.4475 236.863 -42.0817L236.856 -42.0756C232.213 -37.5062 228.205 -32.6405 224.735 -27.2906C215.424 -12.9466 209.888 4.14034 205.978 21.4548C203.4 32.8713 201.518 44.447 199.735 55.4147C198.818 61.0578 197.927 66.54 196.98 71.7567L196.98 71.7583C196.042 76.9813 195.173 82.919 194.24 89.3014C192.039 104.345 189.477 121.86 184.792 138.315C178.115 161.759 167.224 182.635 147.323 190.897L147.32 190.898C129.83 198.21 108.61 192.217 91.1634 183.294Z" stroke="white" stroke-width="2" stroke-miterlimit="10"/>
<path d="M-102.466 147.154C-134.452 158.369 -162.959 152.907 -186.783 138.189C-210.654 123.443 -229.878 99.3658 -243.095 73.3161L-243.096 73.315C-253.116 53.6263 -261.589 33.0488 -266.195 11.832L-266.195 11.8313C-267.27 6.89955 -268.502 1.54604 -269.807 -4.12595C-275.089 -27.0776 -281.572 -55.244 -283.671 -81.7832C-284.98 -98.3237 -284.579 -114.166 -281.147 -127.667C-277.716 -141.161 -271.275 -152.255 -260.549 -159.406L-260.546 -159.408C-258.614 -160.707 -255.977 -161.312 -252.698 -161.317C-249.42 -161.321 -245.578 -160.725 -241.32 -159.695C-232.798 -157.635 -222.803 -153.891 -212.656 -150.004C-211.866 -149.702 -211.075 -149.398 -210.285 -149.095C-200.949 -145.513 -191.583 -141.92 -183.336 -139.587C-178.859 -138.32 -174.673 -137.413 -170.968 -137.084C-167.272 -136.755 -163.974 -136.994 -161.334 -138.094L-161.333 -138.095C-148.435 -143.495 -136.442 -149.843 -124.593 -156.114C-118.853 -159.152 -113.148 -162.172 -107.389 -165.058C-89.6997 -173.922 -71.4036 -181.584 -49.7355 -184.885C-23.7868 -188.804 -6.17577 -209.534 10.4221 -231.735C12.3956 -234.375 14.3551 -237.036 16.3135 -239.696C22.6294 -248.274 28.9337 -256.837 35.662 -264.609C44.4704 -274.784 53.9414 -283.526 64.9818 -289.08L64.9824 -289.081C68.2469 -290.726 72.9749 -289.588 78.9938 -286.22C84.9313 -282.898 91.7329 -277.626 98.8473 -271.718C101.828 -269.242 104.874 -266.646 107.926 -264.045C112.107 -260.481 116.298 -256.908 120.349 -253.624C127.362 -247.936 134.119 -242.971 139.985 -240.19C145.053 -237.632 149.732 -236.777 153.407 -238.944L153.413 -238.948L153.419 -238.952C186.105 -258.905 225.443 -252.339 259.626 -234.934C270.781 -229.244 282.387 -221.852 293.016 -207.9L293.033 -207.878L293.052 -207.856C293.342 -207.514 293.695 -207.029 294.083 -206.494L294.085 -206.49C307.845 -187.679 315.433 -163.53 317.627 -141.197C319.825 -118.828 316.594 -98.4971 308.962 -87.249L308.959 -87.2451C301.271 -75.7832 290.792 -69.6417 279.774 -64.0875C278.215 -63.3015 276.644 -62.5266 275.067 -61.7493C265.542 -57.0535 255.839 -52.27 247.683 -44.4236C242.715 -39.7501 238.507 -34.5014 234.844 -28.7818C224.937 -13.5482 219.07 4.666 214.929 23.1363C212.243 35.1128 210.272 47.2602 208.401 58.7862C207.39 65.0122 206.409 71.0568 205.361 76.7952L205.36 76.7987C204.38 82.2868 203.47 88.5264 202.49 95.2375C200.147 111.289 197.411 130.037 192.389 147.648C185.264 172.632 173.634 194.914 152.397 203.728C133.825 211.359 111.241 204.975 92.475 195.331C79.2112 188.498 66.8781 180.239 54.5169 171.909L53.5691 171.271C41.5416 163.164 29.4636 155.024 16.5364 148.186C3.23099 140.916 -8.91553 136.637 -20.7568 134.504L-20.7597 134.504C-47.9875 129.675 -72.6156 136.629 -102.466 147.154ZM-102.466 147.154C-102.466 147.155 -102.467 147.155 -102.467 147.155L-102.049 148.07L-102.466 147.154C-102.466 147.154 -102.466 147.154 -102.466 147.154Z" stroke="white" stroke-width="2" stroke-miterlimit="10"/>
<path d="M-286.753 11.7486C-287.91 6.43194 -289.245 0.641967 -290.661 -5.50372C-296.253 -29.7676 -303.124 -59.5762 -305.388 -87.6893C-306.806 -105.298 -306.408 -122.175 -302.781 -136.553C-299.155 -150.924 -292.319 -162.738 -280.906 -170.328L-280.903 -170.33C-278.853 -171.704 -276.046 -172.333 -272.556 -172.322C-269.069 -172.311 -264.979 -171.659 -260.446 -170.548C-251.377 -168.325 -240.729 -164.31 -229.924 -160.151C-229.127 -159.845 -228.328 -159.537 -227.53 -159.229C-217.543 -155.38 -207.523 -151.517 -198.708 -149.011C-193.945 -147.656 -189.494 -146.686 -185.56 -146.331C-181.634 -145.977 -178.141 -146.229 -175.353 -147.392L-175.351 -147.393C-161.726 -153.105 -149.039 -159.815 -136.496 -166.448C-130.328 -169.71 -124.195 -172.954 -118.002 -176.051C-99.173 -185.469 -79.6825 -193.601 -56.6167 -197.075C-29.1117 -201.213 -10.4739 -223.279 7.08168 -246.931C9.18174 -249.76 11.2666 -252.613 13.3502 -255.464C20.0149 -264.583 26.6669 -273.686 33.7646 -281.946C43.0754 -292.782 53.0884 -302.088 64.7673 -307.989L64.7682 -307.989C66.8691 -309.053 69.5457 -309.025 72.8143 -307.994C76.087 -306.961 79.8281 -304.961 83.9153 -302.263C92.0132 -296.92 101.225 -289.011 110.497 -281.049L110.761 -280.823C120.084 -272.818 129.462 -264.782 137.678 -259.455C141.786 -256.792 145.672 -254.76 149.168 -253.761C152.676 -252.759 155.91 -252.767 158.551 -254.356L158.553 -254.358C193.236 -275.376 234.977 -268.406 271.168 -249.849L271.172 -249.846C282.953 -243.869 295.306 -235.904 306.639 -221.046L306.64 -221.045C321.851 -201.162 330.23 -175.233 332.721 -151.164C335.216 -127.061 331.787 -105.046 323.633 -92.9318C315.446 -80.767 304.302 -74.2318 292.606 -68.3192C290.962 -67.4886 289.306 -66.6696 287.646 -65.8482C277.525 -60.8424 267.228 -55.75 258.584 -47.4107C241.902 -31.3637 232.582 -9.41895 226.492 13.6123C222.195 29.8613 219.489 46.7373 216.959 62.5126C215.906 69.0774 214.884 75.4515 213.791 81.5105L213.79 81.5128C212.758 87.3195 211.8 93.9349 210.767 101.058C208.298 118.099 205.408 138.045 200.084 156.78C192.531 183.357 180.177 207.078 157.581 216.372C137.674 224.556 113.671 217.64 93.7925 207.369L93.7921 207.369C79.7634 200.128 66.7138 191.366 53.6433 182.494C53.0457 182.088 52.448 181.682 51.8502 181.276C39.3907 172.814 26.8701 164.31 13.5012 157.067L13.5007 157.067C-9.83447 144.437 -29.948 140.084 -49.9641 140.939C-69.9355 141.792 -89.7507 147.831 -112.476 155.864C-146.491 167.833 -176.788 161.987 -202.116 146.304C-227.491 130.593 -247.93 104.969 -262.026 77.3523L-262.946 77.7233L-262.026 77.3522C-272.705 56.4328 -281.74 34.4337 -286.753 11.7486ZM-286.753 11.7486C-286.753 11.7491 -286.753 11.7497 -286.753 11.7503L-287.76 11.8803L-286.753 11.7472C-286.753 11.7476 -286.753 11.7481 -286.753 11.7486Z" stroke="white" stroke-width="2" stroke-miterlimit="10"/>
</g>
<path d="M77.037 75.5556H124.444C127.704 75.5556 130.37 78.2223 130.37 81.4815V117.037C130.37 120.296 127.704 122.963 124.444 122.963H77.037C73.7778 122.963 71.1111 120.296 71.1111 117.037V81.4815C71.1111 78.2223 73.7778 75.5556 77.037 75.5556Z" stroke="#ED0331" stroke-width="3" stroke-linecap="round" stroke-linejoin="round"/>
<path d="M130.37 81.4815L100.741 102.222L71.1111 81.4815" stroke="#ED0331" stroke-width="3" stroke-linecap="round" stroke-linejoin="round"/>
</svg>
